<?xml version="1.0" encoding="UTF-8"?>
<svg width="72px" height="72px" viewBox="0 0 72 72" version="1.1" xmlns="http://www.w3.org/2000/svg" xmlns:xlink="http://www.w3.org/1999/xlink">
    <!-- Generator: Sketch 43.1 (39012) - http://www.bohemiancoding.com/sketch -->
    <title>financingIcon</title>
    <desc>Created with Sketch.</desc>
    <defs></defs>
    <g id="help-pattern-blocks" stroke="none" stroke-width="1" fill="none" fill-rule="evenodd">
        <g id="Artboard" transform="translate(-531.000000, -447.000000)">
            <g id="Group-20" transform="translate(536.000000, 448.000000)">
                <circle id="Oval-3" fill="#EBC186" cx="32" cy="32" r="32"></circle>
                <path d="M44.8760355,39.1802898 C44.8760355,41.8066573 43.9262628,43.9168045 42.0266888,45.5107949 C40.1271149,47.1047852 37.4677512,48.0586874 34.0485181,48.37253 L34.0485181,53.4518002 L30.654079,53.4518002 L30.654079,48.4716377 C26.6236785,48.3890476 23.0888722,47.6787827 20.0495539,46.3408219 L20.0495539,39.799713 C21.4866229,40.5099885 23.216861,41.1376644 25.2403202,41.6827595 C27.2637795,42.2278546 29.0683476,42.5499515 30.654079,42.6490597 L30.654079,34.9682121 L28.9940248,34.324012 C25.723454,33.0356053 23.4068344,31.6357228 22.0440965,30.1243227 C20.6813587,28.6129225 20,26.7422832 20,24.5123485 C20,22.1172335 20.9373844,20.1474875 22.8121813,18.6030513 C24.6869782,17.058615 27.300918,16.1212306 30.654079,15.79087 L30.654079,12 L34.0485181,12 L34.0485181,15.6917622 C37.831148,15.8569426 41.2503298,16.6167608 44.3061662,17.9712396 L41.977135,23.7690407 C39.4003216,22.7118865 36.7574757,22.0676928 34.0485181,21.8364403 L34.0485181,29.145634 C37.2695348,30.3844866 39.5613777,31.4581428 40.9241155,32.3666347 C42.2868534,33.2751266 43.2861795,34.2744526 43.9221238,35.3646429 C44.5580681,36.4548332 44.8760355,37.7267028 44.8760355,39.1802898 Z M37.4181802,39.5519437 C37.4181802,38.8581863 37.1373779,38.2718048 36.5757647,37.7927818 C36.0141515,37.3137588 35.1717444,36.8182252 34.0485181,36.3061662 L34.0485181,42.4756212 C36.2949708,42.0957064 37.4181802,41.121157 37.4181802,39.5519437 Z M27.4578553,24.5123485 C27.4578553,25.2391421 27.7097515,25.8379118 28.2135516,26.3086758 C28.7173516,26.7794398 29.5308526,27.2625851 30.654079,27.7581261 L30.654079,21.9355481 C28.5232525,22.2493907 27.4578553,23.1083156 27.4578553,24.5123485 Z" id="$" fill="#DBAD6E"></path>
                <g id="Group-19" transform="translate(44.000000, 55.000000)">
                    <path d="M0.200036231,11 C1.1265769,13.2822403 5.16208418,15 10,15 C14.8379158,15 18.8734231,13.2822403 19.7999638,11 L20,11 L20,5 L0,5 L0,11 L0.200036231,11 Z" id="Combined-Shape" fill="#FDD488"></path>
                    <ellipse id="Oval-3" fill="#FEE2A7" cx="10" cy="5" rx="10" ry="5"></ellipse>
                </g>
                <g id="Group-19" transform="translate(24.000000, 55.000000)">
                    <path d="M0.200036231,11 C1.1265769,13.2822403 5.16208418,15 10,15 C14.8379158,15 18.8734231,13.2822403 19.7999638,11 L20,11 L20,5 L0,5 L0,11 L0.200036231,11 Z" id="Combined-Shape" fill="#FDD488"></path>
                    <ellipse id="Oval-3" fill="#FEE2A7" cx="10" cy="5" rx="10" ry="5"></ellipse>
                </g>
                <g id="Group-19" transform="translate(24.000000, 45.000000)">
                    <path d="M0.200036231,11 C1.1265769,13.2822403 5.16208418,15 10,15 C14.8379158,15 18.8734231,13.2822403 19.7999638,11 L20,11 L20,5 L0,5 L0,11 L0.200036231,11 Z" id="Combined-Shape" fill="#FDD488"></path>
                    <ellipse id="Oval-3" fill="#FEE2A7" cx="10" cy="5" rx="10" ry="5"></ellipse>
                </g>
                <g id="Group-19" transform="translate(44.000000, 45.000000)">
                    <path d="M0.200036231,11 C1.1265769,13.2822403 5.16208418,15 10,15 C14.8379158,15 18.8734231,13.2822403 19.7999638,11 L20,11 L20,5 L0,5 L0,11 L0.200036231,11 Z" id="Combined-Shape" fill="#FDD488"></path>
                    <ellipse id="Oval-3" fill="#FEE2A7" cx="10" cy="5" rx="10" ry="5"></ellipse>
                </g>
                <g id="Group-19" transform="translate(44.000000, 35.000000)">
                    <path d="M0.200036231,11 C1.1265769,13.2822403 5.16208418,15 10,15 C14.8379158,15 18.8734231,13.2822403 19.7999638,11 L20,11 L20,5 L0,5 L0,11 L0.200036231,11 Z" id="Combined-Shape" fill="#FDD488"></path>
                    <ellipse id="Oval-3" fill="#FEE2A7" cx="10" cy="5" rx="10" ry="5"></ellipse>
                </g>
            </g>
        </g>
    </g>
</svg>