<?xml version="1.0" encoding="UTF-8"?>
<svg width="72px" height="72px" viewBox="0 0 72 72" version="1.1" xmlns="http://www.w3.org/2000/svg" xmlns:xlink="http://www.w3.org/1999/xlink">
    <!-- Generator: Sketch 43.1 (39012) - http://www.bohemiancoding.com/sketch -->
    <title>usersIcon</title>
    <desc>Created with Sketch.</desc>
    <defs>
        <path d="M11.5974368,0.987938475 C11.5350453,0.442315121 11.9305607,0 12.4828572,0 L21.5171536,0 C22.0685493,0 22.4649152,0.442755122 22.402574,0.987938475 L21.1577033,11.8745254 C21.0953118,12.4201488 20.5982865,12.8624639 20.0528074,12.8624639 L13.9472034,12.8624639 C13.3993777,12.8624639 12.9046486,12.4197088 12.8423074,11.8745254 L11.5974368,0.987938475 Z" id="path-1"></path>
        <filter x="-4.6%" y="-3.9%" width="109.2%" height="115.5%" filterUnits="objectBoundingBox" id="filter-2">
            <feOffset dx="0" dy="1" in="SourceAlpha" result="shadowOffsetOuter1"></feOffset>
            <feColorMatrix values="0 0 0 0 0.921568627   0 0 0 0 0.756862745   0 0 0 0 0.525490196  0 0 0 1 0" type="matrix" in="shadowOffsetOuter1"></feColorMatrix>
        </filter>
        <path d="M6.47956822,0.549304164 C6.44544927,0.245931851 6.66707805,0 6.9757143,0 L12.0242917,0 C12.3324246,0 12.5548688,0.243157496 12.5204378,0.549304164 L11.8220701,6.75891397 C11.7879511,7.06228628 11.5172463,7.30821813 11.2059806,7.30821813 L7.79402541,7.30821813 C7.48788754,7.30821813 7.21236689,7.06506064 7.17793591,6.75891397 L6.47956822,0.549304164 Z" id="path-3"></path>
        <filter x="-8.3%" y="-6.8%" width="116.5%" height="127.4%" filterUnits="objectBoundingBox" id="filter-4">
            <feOffset dx="0" dy="1" in="SourceAlpha" result="shadowOffsetOuter1"></feOffset>
            <feColorMatrix values="0 0 0 0 0.921568627   0 0 0 0 0.756862745   0 0 0 0 0.525490196  0 0 0 1 0" type="matrix" in="shadowOffsetOuter1"></feColorMatrix>
        </filter>
        <path d="M6.47956822,0.549304164 C6.44544927,0.245931851 6.66707805,0 6.9757143,0 L12.0242917,0 C12.3324246,0 12.5548688,0.243157496 12.5204378,0.549304164 L11.8220701,6.75891397 C11.7879511,7.06228628 11.5172463,7.30821813 11.2059806,7.30821813 L7.79402541,7.30821813 C7.48788754,7.30821813 7.21236689,7.06506064 7.17793591,6.75891397 L6.47956822,0.549304164 Z" id="path-5"></path>
        <filter x="-8.3%" y="-6.8%" width="116.5%" height="127.4%" filterUnits="objectBoundingBox" id="filter-6">
            <feOffset dx="0" dy="1" in="SourceAlpha" result="shadowOffsetOuter1"></feOffset>
            <feColorMatrix values="0 0 0 0 0.921568627   0 0 0 0 0.756862745   0 0 0 0 0.525490196  0 0 0 1 0" type="matrix" in="shadowOffsetOuter1"></feColorMatrix>
        </filter>
    </defs>
    <g id="help-pattern-blocks" stroke="none" stroke-width="1" fill="none" fill-rule="evenodd">
        <g id="Artboard" transform="translate(-259.000000, -198.000000)">
            <g id="Teammates" transform="translate(263.000000, 200.000000)">
                <path d="M51,70 C51,62.1270592 42.9411255,56 33,56 C23.0588745,56 15,62.1270592 15,70 L51,70 Z" id="Oval-1407" fill="#EBC186"></path>
                <g id="Group-2" transform="translate(16.000000, 13.000000)">
                    <path d="M3.00642094,23.194197 C2.73606253,13.6842804 10.4329077,11.6468479 16.797619,11.6468479 C23.2512431,11.6468479 30.222687,13.4090066 30.28564,23.4850117 C30.6080911,23.2454106 30.9717183,23.1074322 31.3786755,23.1074322 C33.5878145,23.1074322 32.9994941,26.1367025 32.9994941,28.4529361 C32.9994941,30.6496707 31.3886543,32.4519345 29.3378869,32.632052 C27.6393406,39.1118373 22.6670502,43.8030077 16.797619,43.8030077 C10.9188051,43.8030077 5.94000246,39.0968268 4.24923047,32.6009626 C2.32167991,32.300212 0.843000671,30.5576273 0.843000671,28.4529361 C0.843000671,26.1367025 0.254680222,23.1074322 2.46381922,23.1074322 C2.6540844,23.1074322 2.83487827,23.1375922 3.00642094,23.194197 Z" id="Oval-1408" fill="#EBC186"></path>
                    <g id="Group" transform="translate(0.500000, 0.000000)">
                        <path d="M32,21.2108271 C32,9.54850206 25.836556,5.43123196 17,5.43123196 C8.163444,5.43123196 0.470226317,2.14696342 1,21.2108271 C1,25.6417879 32,26.0798445 32,21.2108271 Z" id="Oval-2" fill="#FDD488"></path>
                        <path d="M31.4761905,16.916487 C32.3527538,5.18895725 24.6538629,0 16.2380952,0 C7.82232762,0 0.190129256,6.3742836 1,16.916487 C1.19905066,19.507558 8.71180565,20.5359047 16.3768097,20.509069 C23.9493397,20.4825571 31.2595857,19.81444 31.4761905,16.916487 Z" id="Oval-2" fill="#FEE2A7"></path>
                        <g id="Rectangle-12">
                            <use fill="black" fill-opacity="1" filter="url(#filter-2)" xlink:href="#path-1"></use>
                            <use fill="#FDD488" fill-rule="evenodd" xlink:href="#path-1"></use>
                        </g>
                    </g>
                </g>
                <g id="Group-2">
                    <path d="M1.68005876,13.178521 C1.52897612,7.77515934 5.83015431,6.61752724 9.38690476,6.61752724 C12.9933417,6.61752724 16.8891486,7.61875373 16.9243282,13.3437567 C17.1045215,13.2076197 17.3077249,13.1292228 17.5351422,13.1292228 C18.7696611,13.1292228 18.4408938,14.8503992 18.4408938,16.166441 C18.4408938,17.4145856 17.5407186,18.4385991 16.3947015,18.5409386 C15.4455139,22.2226349 12.666881,24.8880726 9.38690476,24.8880726 C6.10168517,24.8880726 3.31941308,22.2141061 2.37456994,18.5232741 C1.29740936,18.3523932 0.47108861,17.3622883 0.47108861,16.166441 C0.47108861,14.8503992 0.1423213,13.1292228 1.37684015,13.1292228 C1.48316481,13.1292228 1.58419668,13.1463592 1.68005876,13.178521 Z" id="Oval-1408" fill="#EBC186"></path>
                    <g id="Group" transform="translate(0.279412, 0.000000)">
                        <path d="M17.8823529,12.0516063 C17.8823529,5.42528526 14.4380754,3.08592725 9.5,3.08592725 C4.56192459,3.08592725 0.26277353,1.21986558 0.558823529,12.0516063 C0.558823529,14.5691976 17.8823529,14.8180935 17.8823529,12.0516063 Z" id="Oval-2" fill="#FDD488"></path>
                        <path d="M17.5896359,9.61164037 C18.07948,2.94827117 13.7771587,0 9.07422969,0 C4.37130073,0 0.106248702,3.62175205 0.558823529,9.61164037 C0.670057721,11.0838398 4.86836198,11.6681277 9.15174658,11.6528801 C13.3834545,11.6378165 17.468592,11.2582046 17.5896359,9.61164037 Z" id="Oval-2" fill="#FEE2A7"></path>
                        <g id="Rectangle-12">
                            <use fill="black" fill-opacity="1" filter="url(#filter-4)" xlink:href="#path-3"></use>
                            <use fill="#FDD488" fill-rule="evenodd" xlink:href="#path-3"></use>
                        </g>
                    </g>
                </g>
                <g id="Group-2" transform="translate(46.000000, 0.000000)">
                    <path d="M1.68005876,13.178521 C1.52897612,7.77515934 5.83015431,6.61752724 9.38690476,6.61752724 C12.9933417,6.61752724 16.8891486,7.61875373 16.9243282,13.3437567 C17.1045215,13.2076197 17.3077249,13.1292228 17.5351422,13.1292228 C18.7696611,13.1292228 18.4408938,14.8503992 18.4408938,16.166441 C18.4408938,17.4145856 17.5407186,18.4385991 16.3947015,18.5409386 C15.4455139,22.2226349 12.666881,24.8880726 9.38690476,24.8880726 C6.10168517,24.8880726 3.31941308,22.2141061 2.37456994,18.5232741 C1.29740936,18.3523932 0.47108861,17.3622883 0.47108861,16.166441 C0.47108861,14.8503992 0.1423213,13.1292228 1.37684015,13.1292228 C1.48316481,13.1292228 1.58419668,13.1463592 1.68005876,13.178521 Z" id="Oval-1408" fill="#EBC186"></path>
                    <g id="Group" transform="translate(0.279412, 0.000000)">
                        <path d="M17.8823529,12.0516063 C17.8823529,5.42528526 14.4380754,3.08592725 9.5,3.08592725 C4.56192459,3.08592725 0.26277353,1.21986558 0.558823529,12.0516063 C0.558823529,14.5691976 17.8823529,14.8180935 17.8823529,12.0516063 Z" id="Oval-2" fill="#FDD488"></path>
                        <path d="M17.5896359,9.61164037 C18.07948,2.94827117 13.7771587,0 9.07422969,0 C4.37130073,0 0.106248702,3.62175205 0.558823529,9.61164037 C0.670057721,11.0838398 4.86836198,11.6681277 9.15174658,11.6528801 C13.3834545,11.6378165 17.468592,11.2582046 17.5896359,9.61164037 Z" id="Oval-2" fill="#FEE2A7"></path>
                        <g id="Rectangle-12">
                            <use fill="black" fill-opacity="1" filter="url(#filter-6)" xlink:href="#path-5"></use>
                            <use fill="#FDD488" fill-rule="evenodd" xlink:href="#path-5"></use>
                        </g>
                    </g>
                </g>
            </g>
        </g>
    </g>
</svg>