<?xml version="1.0" encoding="UTF-8" standalone="no"?>
<svg width="92px" height="86px" viewBox="0 0 92 86" version="1.1" xmlns="http://www.w3.org/2000/svg" xmlns:xlink="http://www.w3.org/1999/xlink" xmlns:sketch="http://www.bohemiancoding.com/sketch/ns">
    <!-- Generator: Sketch 3.2.2 (9983) - http://www.bohemiancoding.com/sketch -->
    <title>Group 5</title>
    <desc>Created with Sketch.</desc>
    <defs></defs>
    <g id="Page-1" stroke="none" stroke-width="1" fill="none" fill-rule="evenodd" sketch:type="MSPage">
        <g id="Group-5" sketch:type="MSLayerGroup" transform="translate(0.000000, -1.000000)">
            <path d="M42.0980018,2.52419577 C45.4527508,0.606867392 50.1359018,2.29121671 50.1359018,2.29121671 L69.7942213,16.9502492 L69.7942192,8.01259924 L82.8820682,7.85716267 L82.8820682,27.3178209 L91.4773646,34.2329483 L85.7477864,40.3582782 L49.2893812,12.308094 C49.2893812,12.308094 46.2949512,10.177651 43.3105388,12.308094 C43.3105388,12.0492512 6.71578264,41.4323863 6.71578264,41.4323863 L0.868761206,34.2326211 C0.868761206,34.2326211 41.7176376,2.74158401 42.0980018,2.52419577 Z" id="Stroke-2" fill="#FBCE0E" sketch:type="MSShapeGroup"></path>
            <path d="M33.9010526,86.581154 L34.0072187,63.6914015 C34.0072187,63.6914015 28.2974371,63.9168655 27.9365855,63.9168655 C27.5757339,63.9168655 27.3827403,63.9168655 27.9365855,63.4915579 C28.4904307,63.0662504 44.9527381,47.2641799 45.7004355,46.6883176 C46.5647184,46.0226633 47.4420264,46.6883176 47.4420264,46.6883176 L65.136908,63.9168663 L58.5849891,63.6914015 L58.5849891,86.5975157 L77.950388,86.581154 C77.950388,86.581154 84.8495852,85.481972 84.8495852,79.3368283 C84.8495852,73.1877577 84.8495851,46.0226625 84.8495851,46.0226625 C84.8495851,46.0226625 60.4841133,26.7083819 48.4440094,17.6763408 C47.6402545,17.0733936 45.6078731,16.9386077 44.6371629,17.6763408 C32.9301431,26.5735961 8.28481861,46.0226625 8.28481861,46.0226625 C8.28481861,46.0226625 8.30508267,66.7569958 8.28971914,77.2305043 C8.28941357,77.4388149 8.29015204,77.4722963 8.28880243,77.855436 C8.28745282,78.2385757 8.27219611,78.1461672 8.28481861,78.6217118 C8.34140055,80.7534003 8.98530451,86.5975157 14.3450664,86.5975157 C20.8982644,86.5975157 33.9010526,86.581154 33.9010526,86.581154 Z" id="Stroke-4" fill="#F5AA1B" sketch:type="MSShapeGroup"></path>
        </g>
    </g>
</svg>